<svg height="512" viewBox="0 0 58 58" width="512" xmlns="http://www.w3.org/2000/svg"><g id="Page-1" fill="none" fill-rule="evenodd"><g id="031---No-Virus" fill-rule="nonzero"><path id="Shape" d="m29 0c-16.0162577 0-29 12.9837423-29 29s12.9837423 29 29 29 29-12.9837423 29-29-12.9837423-29-29-29zm-19.72 44.34c-7.75044084-9.9444233-6.87587404-24.105513 2.0393065-33.0206935 8.9151805-8.91518054 23.0762702-9.78974734 33.0206935-2.0393065.2225356.17580177.3587954.43875488.3741027.7219404.0153074.2831855-.091814.5592944-.2941027.7580596l-33.66 33.66c-.1987652.2022887-.4748741.3094101-.7580596.2941027-.28318552-.0153073-.54613863-.1515671-.7219404-.3741027zm21.81 9.57c-6.2569803.5336157-12.4840784-1.3205804-17.43-5.19-.2225356-.1758018-.3587954-.4387549-.3741027-.7219404-.0153074-.2831855.091814-.5592944.2941027-.7580596l33.66-33.66c.1987652-.2022887.4748741-.3094101.7580596-.2941027.2831855.0153073.5461386.1515671.7219404.3741027 5.6377244 7.2345336 6.8576144 16.9767229 3.1777603 25.377978s-11.6676118 14.1103802-20.8077603 14.872022z" fill="#e54c3c"/><path id="Shape" d="m53.91 31.09c-.7616418 9.1401485-6.4707669 17.1279062-14.872022 20.8077603s-18.1434444 2.4599641-25.377978-3.1777603c-.2225356-.1758018-.3587954-.4387549-.3741027-.7219404-.0153074-.2831855.091814-.5592944.2941027-.7580596l33.66-33.66c.1987652-.2022887.4748741-.3094101.7580596-.2941027.2831855.0153073.5461386.1515671.7219404.3741027 3.8694196 4.9459216 5.7236157 11.1730197 5.19 17.43z" fill="#fff"/><path id="Shape" d="m44.42 10.76-33.66 33.66c-.1987652.2022887-.4748741.3094101-.7580596.2941027-.28318552-.0153073-.54613863-.1515671-.7219404-.3741027-7.75044084-9.9444233-6.87587404-24.105513 2.0393065-33.0206935 8.9151805-8.91518054 23.0762702-9.78974734 33.0206935-2.0393065.2225356.17580177.3587954.43875488.3741027.7219404.0153074.2831855-.091814.5592944-.2941027.7580596z" fill="#fff"/><g fill="#338f7c"><path id="Rectangle-path" d="m28 11h2v6h-2z"/><path id="Rectangle-path" d="m20.5 13.171h2v5.679h-2z" transform="matrix(.866 -.5 .5 .866 -5.125 12.896)"/><path id="Rectangle-path" d="m15.009 18.527h2v5.948h-2z" transform="matrix(.5 -.866 .866 .5 -10.616 24.615)"/><path id="Rectangle-path" d="m11 28h6v2h-6z"/><path id="Rectangle-path" d="m28 41h2v6h-2z"/><path id="Rectangle-path" d="m35.5 39.151h2v5.679h-2z" transform="matrix(.866 -.5 .5 .866 -16.106 23.876)"/><path id="Rectangle-path" d="m40.99 33.527h2v5.948h-2z" transform="matrix(.5 -.866 .866 .5 -10.615 54.617)"/><path id="Rectangle-path" d="m41 28h6v2h-6z"/></g><circle id="Oval" cx="29" cy="10" fill="#f2d45b" r="2"/><circle id="Oval" cx="19.5" cy="12.546" fill="#f2d45b" r="2"/><circle id="Oval" cx="12.546" cy="19.5" fill="#f2d45b" r="2"/><circle id="Oval" cx="10" cy="29" fill="#f2d45b" r="2"/><circle id="Oval" cx="29" cy="48" fill="#f2d45b" r="2"/><circle id="Oval" cx="38.5" cy="45.454" fill="#f2d45b" r="2"/><circle id="Oval" cx="45.454" cy="38.5" fill="#f2d45b" r="2"/><circle id="Oval" cx="48" cy="29" fill="#f2d45b" r="2"/><path id="Shape" d="m18.51 36.67c-3.785174-5.1716777-3.234344-12.3308135 1.2974213-16.8625787 4.5317652-4.5317653 11.690901-5.0825953 16.8625787-1.2974213z" fill="#26b899"/><path id="Shape" d="m39.49 21.33c3.785174 5.1716777 3.234344 12.3308135-1.2974213 16.8625787-4.5317652 4.5317653-11.690901 5.0825953-16.8625787 1.2974213z" fill="#26b899"/><path id="Shape" d="m30.45 24.73c.898628-1.2725045.6737598-3.0210877-.5175927-4.0248203s-2.9527335-.9285946-4.0542778.1729498c-1.1015444 1.1015443-1.1766824 2.8629253-.1729498 4.0542778s2.7523158 1.4162207 4.0248203.5175927" fill="#f4eec9"/><path id="Shape" d="m29.73 31.09c.2522537-.0600665.5106935-.0902738.77-.09 1.9329966 0 3.5 1.5670034 3.5 3.5s-1.5670034 3.5-3.5 3.5-3.5-1.5670034-3.5-3.5c-.0002738-.2593065.0299335-.5177463.09-.77" fill="#f4eec9"/><circle id="Oval" cx="37" cy="30" fill="#f8e9af" r="1"/><circle id="Oval" cx="21" cy="27" fill="#f8e9af" r="1"/></g></g></svg>